<svg width="512" height="512" viewBox="0 0 512 512" fill="none" xmlns="http://www.w3.org/2000/svg" role="img" aria-label="3Dcalc+">
  <rect width="512" height="512" rx="112" fill="#1F1F1F"/>
  <rect x="8" y="8" width="496" height="496" rx="104" fill="#141414"/>
  <!-- print layers on the build plate -->
  <g opacity="0.9">
    <rect x="146" y="356" width="220" height="14" rx="7" fill="#2E2E2E"/>
    <rect x="160" y="334" width="192" height="14" rx="7" fill="#2E2E2E"/>
    <rect x="174" y="312" width="164" height="14" rx="7" fill="#3A3A3A"/>
  </g>
  <!-- molten extrusion bead -->
  <rect x="190" y="290" width="132" height="16" rx="8" fill="#EE732E"/>
  <!-- nozzle -->
  <path d="M214 150h84a16 16 0 0 1 16 16v74l-30 44h-56l-30-44v-74a16 16 0 0 1 16-16z" fill="#EE732E"/>
  <path d="M236 284h40l-12 20a8 8 0 0 1-16 0l-12-20z" fill="#FF9A4D"/>
  <!-- hot-end glow -->
  <circle cx="256" cy="298" r="10" fill="#FF9A4D"/>
</svg>
